<svg xmlns="http://www.w3.org/2000/svg" id="Layer_2" data-name="Layer 2" viewBox="0 0 80 80.5"><defs><style>.cls-1,.cls-2,.cls-3{fill:none}.cls-4{fill:#14cc9e}.cls-2{stroke-width:4px}.cls-2,.cls-3{stroke:#14cc9e;stroke-miterlimit:10}</style></defs><g id="Layer_2-2" data-name="Layer 2"><g><g><g><path d="m5.98,23.61v47.89c0,3.12,2.55,5.67,5.67,5.67s5.67-2.55,5.67-5.67V26.14c0-3.12,2.55-5.67,5.67-5.67h0c3.12,0,5.67,2.55,5.67,5.67v45.35c0,3.12,2.55,5.67,5.67,5.67s5.67-2.55,5.67-5.67V26.14c0-3.12,2.55-5.67,5.67-5.67h0c3.12,0,5.67,2.55,5.67,5.67v45.35c0,3.12,2.55,5.67,5.67,5.67s5.67-2.55,5.67-5.67V26.14c0-3.12,2.55-5.67,5.67-5.67h0c3.12,0,5.67,2.55,5.67,5.67v47.89" class="cls-2"/><rect width="6.6" height="6.6" x="2.68" y="20.47" class="cls-4"/><rect width="6.6" height="6.6" x="70.71" y="70.56" class="cls-4"/></g><rect width="5.67" height="5.67" x="3.15" y="17.64" class="cls-3"/><rect width="5.67" height="5.67" x="71.18" y="74.33" class="cls-3"/></g><rect width="80" height="80" class="cls-1"/></g></g></svg>