<svg xmlns="http://www.w3.org/2000/svg" width="161" height="36" fill="none" viewBox="0 0 161 36"><g id="a" clip-path="url(#clip0_2_551)"><path id="Layer" fill="#F2F4F9" fill-rule="evenodd" d="M120.46 9.18042L120.301 13.9139C114.782 13.5318 113.2 14.954 113.2 19.592V20.1863H108.478V9.46698H113.2V12.5236C114.623 10.0295 116.544 8.89387 120.46 9.18042ZM38.1545 17.2252V28.4222H33.421V18.9233C33.421 14.7311 32.3491 13.5637 29.9929 13.5637C27.2441 13.5637 25.0047 16.3019 25.0047 20.1863H20.4941V6.65448H0V2.23939H24.9092V12.3325C25.9811 10.6981 27.9976 9.21226 31.309 9.21226C35.4163 9.21226 38.1545 11.8656 38.1545 17.2252ZM7.88561 10.125H12.6085V28.4222H7.88561V10.125ZM54.0743 22.0436L58.0861 23.816C56.7913 26.809 54.2972 28.8042 49.8821 28.8042C44.1828 28.8042 40.8715 25.2382 40.4257 20.1863H44.8726C45.191 23.0625 47.0483 24.7925 49.9139 24.7925C52.3762 24.7925 53.48 23.8479 54.0743 22.0436ZM58.6167 18.796C58.6167 19.2736 58.5849 19.7193 58.5212 20.1863H49.5106V17.0342H54.0743C53.8939 14.763 52.5354 13.0224 49.8821 13.0224C48.9057 12.9906 47.9929 13.2134 47.1439 13.6592L44.8726 10.4434C45.2473 10.2449 45.6294 10.0751 46.0189 9.93396C46.4147 9.78538 46.818 9.6612 47.2288 9.5625C47.6395 9.47017 48.0534 9.4033 48.4705 9.36085C48.8876 9.31097 49.3058 9.29399 49.7229 9.30778C54.1061 9.30778 58.6486 11.9186 58.6167 18.796ZM100.719 22.0436L104.721 23.816C103.426 26.809 100.942 28.8042 96.5271 28.8042C90.8172 28.8042 87.5059 25.2382 87.0601 20.1863H91.5071C91.8255 23.0625 93.6828 24.7925 96.559 24.7925C98.9788 24.7925 100.083 23.8479 100.719 22.0436ZM105.294 18.796C105.294 19.2736 105.262 19.7193 105.198 20.1863H96.1769V17.0342H100.751C100.56 14.763 99.2017 13.0224 96.559 13.0224C95.5719 12.9906 94.6592 13.2134 93.8101 13.6592L91.5389 10.4434C91.9136 10.2449 92.2999 10.0751 92.6958 9.93396C93.0853 9.78538 93.4843 9.6612 93.8951 9.5625C94.3058 9.47017 94.7197 9.4033 95.1368 9.36085C95.5539 9.31097 95.9752 9.29399 96.3998 9.30778C100.783 9.30778 105.325 11.9186 105.294 18.796ZM155.993 22.0436L159.994 23.816C158.71 26.809 156.216 28.8042 151.801 28.8042C146.091 28.8042 142.779 25.2382 142.344 20.1863H146.791C147.099 23.0625 148.967 24.7925 151.833 24.7925C154.263 24.7925 155.367 23.8479 155.993 22.0436ZM160.472 18.796C160.472 19.2736 160.44 19.7193 160.376 20.1863H151.355V17.0342H155.929C155.738 14.763 154.39 13.0224 151.737 13.0224C150.761 12.9906 149.848 13.2134 148.988 13.6592L146.728 10.4434C147.096 10.2449 147.478 10.0751 147.874 9.93396C148.27 9.78538 148.673 9.6612 149.084 9.5625C149.487 9.47017 149.901 9.4033 150.325 9.36085C150.743 9.31097 151.161 9.29399 151.578 9.30778C155.961 9.30778 160.504 11.9186 160.472 18.796ZM61.0472 0L76.6274 0.0318396V4.12854H68.2323L74.7276 20.1863H69.559L61.0472 0ZM91.7193 0.0318396L80.0236 28.4222H75.0778L76.5212 24.7288L86.2748 0.0318396H91.7193ZM121.585 20.1863H126.223C126.722 22.2347 128.208 23.7842 130.797 23.7842C131.455 23.7842 132.124 23.6887 132.718 23.434L134.607 26.4375C133.44 27.4139 131.774 27.9764 129.757 27.9764C125.374 27.9764 122.222 24.5696 121.585 20.1863ZM135.584 9.49882H140.317V20.1863H135.371C135.52 19.6875 135.584 19.1462 135.584 18.6156C135.584 15.7712 133.504 13.3726 130.415 13.3726C128.239 13.3726 126.817 14.3809 126.096 15.8986L122.158 13.3726C123.601 10.7618 126.35 9.14859 129.311 9.18042C132.336 9.18042 134.512 10.4116 135.584 12.1097V9.49882ZM135.584 28.8361L139.84 30.3219C138.619 33.7288 135.647 36 131.105 36C124.397 36 122.19 32.3703 122.094 29.059H126.605C126.817 30.7889 127.953 32.2748 131.02 32.2748C133.344 32.2748 134.989 31.0436 135.584 28.8361Z" clip-rule="evenodd"/></g><defs><clipPath id="clip0_2_551"><rect width="160.472" height="36" fill="#fff"/></clipPath></defs></svg>