<svg xmlns="http://www.w3.org/2000/svg" width="146" height="48" fill="none" viewBox="0 0 146 48"><g id="arslogo 1" clip-path="url(#clip0_2_554)"><g id="Clip path group"><mask id="mask0_2_554" width="146" height="48" x="0" y="0" maskUnits="userSpaceOnUse" style="mask-type:luminance"><g id="ars-full-mono_svg__a"><path id="Vector" fill="#fff" d="M0.47168 0H145.704V48H0.47168V0Z"/></g></mask><g mask="url(#mask0_2_554)"><g id="Group"><g id="Clip path group_2"><mask id="mask1_2_554" width="146" height="48" x="0" y="0" maskUnits="userSpaceOnUse" style="mask-type:luminance"><g id="ars-full-mono_svg__b"><path id="Vector_2" fill="#fff" d="M0.47168 0H145.704V48H0.47168V0Z"/></g></mask><g mask="url(#mask1_2_554)"><g id="Group_2"><path id="Vector_3" fill="#F2F4F9" d="M73.3544 27.8806C71.8887 29.1131 70.5563 29.5461 69.0907 29.5461C66.5258 29.5461 64.8603 27.7807 64.5938 24.8827H72.8547L73.1545 23.0507H64.5938C64.8603 20.1527 66.4925 18.3539 68.8908 18.3539C71.2892 18.3539 71.8221 18.9202 73.1878 20.0527L73.521 18.0874C72.1885 17.1214 70.5897 16.6218 68.9575 16.6551C65.3933 16.6551 62.5619 19.2533 62.5619 23.95C62.5619 28.6468 65.3266 31.245 68.8575 31.245C70.5896 31.2783 72.2552 30.712 73.6209 29.6461L73.3544 27.8806ZM57.1323 18.7203V31.0118H55.2003V18.7203H50.7368V16.9549H61.4293L61.7291 18.7203H57.099H57.1323ZM81.9484 31.245C77.9845 31.245 75.4529 28.3137 75.4529 23.9833C75.4529 19.653 78.0511 16.6551 81.9817 16.6551C83.4141 16.6218 84.8131 17.0215 85.979 17.821L85.6792 19.7863C84.6132 18.9202 83.3141 18.4538 81.9484 18.4205C79.0837 18.4205 77.4182 20.5857 77.4182 23.95C77.4182 27.3144 79.1171 29.4795 81.9484 29.4795C83.3808 29.4795 84.7798 28.9466 85.9123 28.0805L86.2121 29.8792C84.9797 30.7453 83.4807 31.245 81.9484 31.245ZM97.7375 30.9785V24.483H90.6091V30.9785H88.6771V16.9549H90.6091V22.7842H97.7375V16.9549H99.6694V30.9785H97.7375ZM112.028 30.9785L104.3 20.0527V30.9785H102.534V16.9549H104.233L111.694 27.4476V16.9549H113.46V30.9785H112.028ZM116.491 16.9549H118.423V30.9785H116.491V16.9549ZM127.35 31.245C123.386 31.245 120.855 28.3137 120.855 23.9833C120.855 19.653 123.453 16.6551 127.384 16.6551C128.816 16.6218 130.215 17.0215 131.381 17.821L131.081 19.7863C130.015 18.9202 128.716 18.4538 127.35 18.4205C124.486 18.4205 122.82 20.5857 122.82 23.95C122.82 27.3144 124.519 29.4795 127.35 29.4795C128.783 29.4795 130.182 28.9466 131.314 28.0805L131.614 29.8792C130.381 30.7453 128.882 31.245 127.35 31.245ZM138.309 16.8883H140.241L145.671 30.712L143.805 31.1117L142.14 26.7481H136.344L134.745 30.9785H132.813L138.309 16.8883ZM136.977 25.0826H141.474L139.209 19.1201L136.977 25.0826ZM24.455 0C11.2309 0 0.47168 10.7592 0.47168 24.0167C0.47168 37.2741 11.2309 48.0333 24.455 48.0333C37.6792 48.0333 48.4717 37.2741 48.4717 24.0167C48.4717 10.7592 37.7125 0 24.455 0ZM18.1261 31.3116H15.9276L15.6278 29.3463C14.2954 30.8119 12.43 31.6114 10.4314 31.6114C7.76661 31.6114 6.1011 30.0125 6.1011 27.5142C6.1011 23.8501 9.23226 22.3845 15.3613 21.7516V21.1187C15.3613 19.2533 14.2621 18.6204 12.5633 18.6204C10.8645 18.6204 9.06571 19.1867 7.46682 19.8862L7.10041 17.5212C8.86585 16.8216 10.5314 16.2887 12.7965 16.2887C16.3606 16.2887 18.0928 17.721 18.0928 21.0187V31.2783L18.1261 31.3116ZM24.5216 22.6509V31.3116H21.7902V16.6551H23.9887L24.455 19.653C25.4876 17.9875 27.1865 16.4885 29.6181 16.3553L30.0511 18.9868C27.5862 19.0867 25.5209 20.7189 24.5216 22.6509ZM36.913 31.6114C35.0477 31.5781 33.2156 31.0784 31.5501 30.2123L31.9498 27.6142C33.4821 28.6801 35.2808 29.2797 37.1462 29.313C39.0116 29.313 40.1441 28.6135 40.1441 27.381C40.1441 26.1485 39.3114 25.5156 36.6466 24.8827C33.1823 24.0167 31.8166 22.984 31.8166 20.3525C31.8166 17.721 33.7819 16.2887 37.013 16.2887C38.6785 16.2887 40.3107 16.6218 41.8429 17.288L41.4099 19.8862C40.0442 19.0867 38.5119 18.6537 36.9463 18.6204C35.2808 18.6204 34.4148 19.2533 34.4148 20.3192C34.4148 21.3851 35.1476 21.8515 37.4793 22.4511C41.1101 23.3838 42.7423 24.4164 42.7423 27.2144C42.7423 30.0125 40.7104 31.6114 36.913 31.6114Z"/><path id="Vector_4" fill="#F2F4F9" d="M8.86584 27.381C8.86584 28.9132 9.66529 29.3463 11.0643 29.3463C12.4633 29.3463 14.1955 28.5468 15.428 27.281V23.8501C9.99839 24.3831 8.86584 25.8487 8.86584 27.381Z"/></g></g></g></g></g></g></g><defs><clipPath id="clip0_2_554"><rect width="145.232" height="48" fill="#fff" transform="translate(0.47168)"/></clipPath></defs></svg>